<?xml version="1.0" encoding="iso-8859-1"?>
<svg fill="#e8eaed" height="800px" width="800px" version="1.1" id="Capa_1" xmlns="http://www.w3.org/2000/svg" xmlns:xlink="http://www.w3.org/1999/xlink" viewBox="0 0 59.674 59.674" xml:space="preserve" fill="#e8eaed">
<g>
	<path d="M33.837,47.513l3.399-1.929c0.48-0.272,0.648-0.883,0.376-1.363l-2.425-4.272c-0.131-0.231-0.349-0.401-0.606-0.471
		c-0.256-0.07-0.53-0.035-0.761,0.098l-3.352,1.922l-1.94-3.418c-0.271-0.479-0.879-0.649-1.359-0.378l-4.322,2.428
		c-0.232,0.13-0.402,0.348-0.474,0.604s-0.038,0.53,0.094,0.762l1.942,3.422l-3.402,1.932c-0.48,0.272-0.648,0.883-0.376,1.363
		l2.425,4.272c0.131,0.23,0.348,0.4,0.604,0.47c0.255,0.071,0.529,0.038,0.759-0.094l3.402-1.932l4.28,7.54
		c0.422,0.745,1.217,1.208,2.073,1.208c0.411,0,0.817-0.107,1.175-0.311l1.901-1.079c0.555-0.315,0.953-0.828,1.122-1.444
		c0.168-0.615,0.086-1.259-0.231-1.813L33.837,47.513z"/>
	<path d="M25.337,8c2.206,0,4-1.794,4-4s-1.794-4-4-4s-4,1.794-4,4S23.131,8,25.337,8z"/>
	<path d="M34.337,9c2.206,0,4-1.794,4-4s-1.794-4-4-4s-4,1.794-4,4S32.131,9,34.337,9z"/>
	<path d="M43.337,11c2.206,0,4-1.794,4-4s-1.794-4-4-4c-2.206,0-4,1.794-4,4S41.131,11,43.337,11z"/>
	<path d="M48.337,10c-2.206,0-4,1.794-4,4s1.794,4,4,4s4-1.794,4-4S50.543,10,48.337,10z"/>
	<path d="M45.337,18c-2.206,0-4,1.794-4,4s1.794,4,4,4s4-1.794,4-4S47.543,18,45.337,18z"/>
	<path d="M38.337,24c-2.206,0-4,1.794-4,4s1.794,4,4,4s4-1.794,4-4S40.542,24,38.337,24z"/>
	<path d="M27.337,34c0,2.206,1.794,4,4,4s4-1.794,4-4s-1.794-4-4-4S27.337,31.794,27.337,34z"/>
	<path d="M17.337,11c2.206,0,4-1.794,4-4s-1.794-4-4-4s-4,1.794-4,4S15.131,11,17.337,11z"/>
	<path d="M12.337,18c2.206,0,4-1.794,4-4s-1.794-4-4-4s-4,1.794-4,4S10.131,18,12.337,18z"/>
	<path d="M15.337,23c0-2.206-1.794-4-4-4s-4,1.794-4,4s1.794,4,4,4S15.337,25.206,15.337,23z"/>
	<path d="M17.337,32c0-2.206-1.794-4-4-4s-4,1.794-4,4s1.794,4,4,4S17.337,34.206,17.337,32z"/>
	<path d="M17.337,36c-2.206,0-4,1.794-4,4s1.794,4,4,4s4-1.794,4-4S19.542,36,17.337,36z"/>
</g>
</svg>